<?xml version="1.0" encoding="UTF-8"?><svg id="Layer_1" xmlns="http://www.w3.org/2000/svg" viewBox="0 0 1457.5 1203.01"><defs><style>.cls-1{fill:#fff;}</style></defs><g><path class="cls-1" d="M8.26,1177.16c5.42,10.22,14.73,16.08,26.77,16.08,13.98,0,22.24-6.91,22.24-17.59,0-11.28-6.92-16.38-19.24-22.09l-8.26-3.91c-14.73-6.92-23.6-13.53-23.6-27.81s11.28-24.34,26.3-24.34c12.78,0,21.64,4.8,27.96,15.03l-7.52,4.81c-4.65-7.67-10.96-11.28-20.29-11.28-10.07,0-16.83,6.47-16.83,15.48,0,9.78,5.55,13.38,18.04,19.24l8.27,3.91c16.38,7.82,24.95,15.33,24.95,30.67,0,16.83-12.78,26.76-31.87,26.76-16.68,0-28.57-8.12-35.17-20.59l8.26-4.36Z"/><path class="cls-1" d="M97.36,1200.9h-9.77v-102.22h21.95c27.67,0,42.09,16.39,42.09,38.48s-14.42,38.19-42.09,38.19h-12.18v25.55Zm11.57-34.27c23.31,0,32.63-12.48,32.63-29.47s-9.33-29.76-32.63-29.76h-11.57v59.23h11.57Z"/><path class="cls-1" d="M163.16,1200.9h-9.77l42.99-104.62h.75l43.15,104.62h-10.08l-7.06-17.74h-52.76l-7.22,17.74Zm33.67-83.13l-22.99,56.68h45.69c.15,0-22.7-56.68-22.7-56.68Z"/><path class="cls-1" d="M320.64,1200.9h-11.87l-20.3-26.16c-2.7,.45-5.41,.61-8.4,.61h-12.48v25.55h-9.78v-102.22h22.26c27.8,0,42.23,16.39,42.23,38.48,0,16.39-8.11,29.76-23.9,35.33l22.25,28.41Zm-41.19-34.12c23.3,0,32.61-12.48,32.61-29.62s-9.46-29.76-32.61-29.76h-11.87v59.38h11.87Z"/><path class="cls-1" d="M399.66,1098.68h10.98l-38.19,48.55,42.55,53.67h-11.74l-36.97-46.6-13.08,16.24v30.36h-9.77v-102.22h9.77v58.93l46.45-58.93Z"/><path class="cls-1" d="M431.8,1098.68h9.77v93.5h47.5v8.72h-57.26v-102.22Z"/><path class="cls-1" d="M507.82,1098.68h9.91v102.22h-9.91v-102.22Z"/><path class="cls-1" d="M553.64,1120.48v80.42h-9.17v-104.33h.9l68.84,82.53v-80.42h9.18v104.33h-.9l-68.85-82.53Z"/><path class="cls-1" d="M642.71,1149.79c0-30.21,23.16-52.31,51.87-52.31,17.89,0,29.76,6.31,38.48,15.93l-6.92,6.47c-7.06-7.82-16.09-13.53-31.87-13.53-23.75,0-41.33,18.63-41.33,43.44s17.88,43.44,43.14,43.44c15.04,0,24.5-4.36,31.13-9.91v-16.09h-30.82v-8.72h40.14v29.31c-9.32,8.27-21.2,14.28-40.44,14.28-29.91,0-53.36-22.1-53.36-52.32Z"/><path class="cls-1" d="M778.54,1149.79c0-30.36,22.7-52.31,51.71-52.31,17.29,0,30.97,7.06,40.14,19.08l-7.51,5.42c-7.67-9.92-18.5-15.64-32.77-15.64-23.75,0-41.33,18.63-41.33,43.44s17.88,43.44,42.09,43.44c14.72,0,26.6-6.16,34.72-16.98l7.66,5.41c-10.06,13.23-24.34,20.45-42.68,20.45-29.31,0-52.16-21.95-52.01-52.32Z"/><path class="cls-1" d="M881.9,1149.79c0-30.21,23.44-52.31,52.46-52.31s52.46,22.09,52.46,52.31-23.45,52.32-52.46,52.32-52.46-22.1-52.46-52.32Zm94.71,0c0-24.81-17.9-43.44-42.24-43.44s-42.24,18.63-42.24,43.44,17.89,43.44,42.24,43.44,42.24-18.63,42.24-43.44Z"/><path class="cls-1" d="M999.39,1149.79c0-30.36,22.7-52.31,51.71-52.31,17.28,0,30.96,7.06,40.14,19.08l-7.52,5.42c-7.66-9.92-18.49-15.64-32.76-15.64-23.76,0-41.34,18.63-41.34,43.44s17.89,43.44,42.09,43.44c14.73,0,26.61-6.16,34.72-16.98l7.67,5.41c-10.07,13.23-24.36,20.45-42.7,20.45-29.3,0-52.16-21.95-52-52.32Z"/><path class="cls-1" d="M1168.75,1098.68h10.96l-38.18,48.55,42.54,53.67h-11.72l-36.98-46.6-13.08,16.24v30.36h-9.77v-102.22h9.77v58.93l46.46-58.93Z"/><path class="cls-1" d="M1221.75,1107.4h-31.71v-8.72h73.05v8.72h-31.57v93.5h-9.77v-93.5Z"/><path class="cls-1" d="M1268.33,1200.9h-9.77l42.99-104.62h.75l43.14,104.62h-10.07l-7.06-17.74h-52.77l-7.21,17.74Zm33.66-83.13l-22.99,56.68h45.69c.16,0-22.7-56.68-22.7-56.68Z"/><path class="cls-1" d="M1363.57,1098.68h9.92v102.22h-9.92v-102.22Z"/><path class="cls-1" d="M1400.23,1098.68h9.77v93.5h47.51v8.72h-57.27v-102.22Z"/></g><g><path class="cls-1" d="M758.99,927.46l-.53,.09c-94.46,32.42-146.7,45.64-180.32,45.64-1.2,0-1.81-1.51-1.81-4.48,0-6.07,1.64-13.9,4.9-23.36,3.24-11.45,4.93-13.67,5.41-14.09h.47l.48-.5c14.18-14.87,23.89-26.61,28.83-34.87,13.79-21.77,20.49-37.54,20.49-48.21v-2.67c0-6.51-3.72-8.48-7.1-9.01h-1.02c-2.2,0-4.71,1.21-7.67,3.69l-.24,.25c-8,10.39-14.86,20.96-20.39,31.43-10.06,19.47-17.93,36.19-23.74,50.36-4.97,1.87-12.98,4.2-23.28,4.88-14.25,.93-15.38,.99-30.44-.72-12.5-1.87-16.18-2.62-30.74-5.3-6.04-1.05-12.22-2.11-18.54-3.16-1.82-.48-3.55-.58-5.17-.29-1.63,.67-2.73,1.96-3.31,3.88-2.97,29.61-11.35,46.81-25.15,51.59-4.31,0-7.14-1.58-8.48-4.74-4.31-12.84,5.61-29.94,29.75-51.31-.29-6.42-2.97-8.91-8.05-7.47-4.71,3.9-8.89,7.77-12.6,11.63-4.5,1.93-13.53,5.08-25.81,5.89-14.25,.93-15.38,.99-30.44-.72-12.5-1.87-16.18-2.62-30.74-5.3-6.04-1.05-12.22-2.11-18.54-3.16-1.82-.48-3.55-.58-5.17-.29-1.63,.67-2.73,1.96-3.31,3.88-2.97,29.61-11.35,46.81-25.15,51.59-4.31,0-7.14-1.58-8.48-4.74-3.06-9.13,1.11-20.43,12.43-33.88,.41-.32,.71-.59,.93-.82,.32-.34,.68-.83,.99-1.43,4.25-4.8,9.38-9.86,15.4-15.18-.29-6.42-2.97-8.91-8.05-7.47-5.33,4.41-10.01,8.79-14.06,13.14l-.33-.03-.76,.4c-62.73,32.82-107.89,49.46-134.21,49.46h-1.86c-18.72,0-27.44-7.84-27.44-24.66,0-12.06,5.18-29.65,15.28-52.04,37.06-64.63,55.97-80.27,65.46-81.43,.2,.5,.48,1.33,.8,2.66-1.84,12.82-5.16,26.39-9.9,40.37-1,3,.08,5.71,2.75,7.18,2.13,1.32,4.62,1.36,7.01,.11l.5-.33c3.43-2.82,8.52-10.56,13.02-45.21l.02-.38c0-15.4-7.11-18.64-13.07-18.64-8.59,0-21.37,9.03-39.07,27.62l-.21,.25c-37.76,49.44-56.91,89.46-56.91,118.93,0,26.09,14.43,39.88,41.74,39.88,19.04,0,44.54-6.6,75.88-19.66,21.34-9.81,35.84-16.69,45.76-21.59-2.32,5.52-3.59,11-3.77,16.43,0,13.22,5.51,20.51,16.53,21.85h2.3c10.73-.29,18.83-5.08,24.29-14.37,5.56-9.39,9.05-18.01,10.49-25.87,.09-.77,.24-1.49,.43-2.16,1.15-6.51,1.82-10.35,2.01-11.5,6.51,1.06,12.88,2.11,19.11,3.16,12.84,2.3,24.57,3.98,36.19,4.82,0,0,18.55,1.48,29.43-.66,.18-.04,2.76-.28,6.39-.95-5.47,8.67-8.35,17.23-8.63,25.68,0,13.22,5.51,20.51,16.53,21.85h2.3c10.73-.29,18.83-5.08,24.29-14.37,5.56-9.39,9.05-18.01,10.49-25.87,.09-.77,.24-1.49,.43-2.16,1.15-6.51,1.82-10.35,2.01-11.5,6.51,1.06,12.88,2.11,19.11,3.16,12.84,2.3,24.57,3.98,36.19,4.82,0,0,18.55,1.48,29.43-.66,.25-.05,5.03-.5,10.9-1.91-4.77,13.43-7.14,23.94-7.14,31.64v3.44c0,1.24,.22,2.85,.72,5.11,2.37,6.81,6.69,10.26,12.87,10.26,35.2,0,84.66-12.34,176.24-43.99,2.68-.6,10.81-2.45,10.81-7.7l-.04-.35c-1.08-4.84-3.81-5.86-6.17-5.86Zm-161.86-25.79c10.22-21.41,25.92-48.26,28.05-50.56l2.19-1.57c-1.21,8.13-6.57,29.6-30.24,52.13Z"/><path class="cls-1" d="M1332.81,919.14c-1.66-.62-3.49-.57-5.52,.17-22.06,10.92-42.56,20.57-60.92,28.67-41.07,16.74-71.67,25.23-90.96,25.23h-8.16c-18.54,0-27.56-8.6-27.56-26.2,.36-3.12,1.07-7,2.12-11.53l79.04-12.17c2.29-.65,3.5-2.36,3.5-4.93s-.57-4.16-1.69-4.95c-1.09-.87-2.43-1.24-4.1-1.14l-73.13,11.32c4.8-13.28,14.44-38.37,15.34-39.67l.11-.21c1.44-4.17-.36-6.44-2.2-7.66-3.52-1.76-6.42-1.36-8.71,1.27-2.9,4.84-14.83,36.17-19.89,51.64-2.35,7.72-3.64,13.36-3.83,16.83,.01,1.97,.12,3.85,.27,5.68-17.19,8.9-36.5,16.43-58.12,20.67,0,0-25.28,6.58-26.09-12.93-.6-14.52,6.04-28.45,11.88-42.2,.2-3.75-1.15-5.94-4.06-6.56-4.8,0-9.17,3.07-13.13,9.22l-.94,1.09c.83-1.87,1.14-4.48,.94-7.81-.73-4.17-6.46-6.36-17.19-6.56-8.44,.94-15.89,2.71-22.35,5.31-6.6,3.58-12.2,7.08-16.83,10.48h-.16l-.75,.39c-62.73,32.82-107.89,49.46-134.21,49.46h-1.86c-18.72,0-27.45-7.84-27.45-24.66,0-12.05,5.18-29.64,15.28-52.04,37.06-64.62,55.98-80.27,65.46-81.43,.2,.5,.48,1.33,.8,2.67-1.84,12.81-5.16,26.38-9.9,40.36-1,3,.09,5.71,2.76,7.18,2.13,1.32,4.62,1.37,7.01,.11l.5-.33c3.43-2.82,8.51-10.56,13.02-45.21l.02-.38c0-15.4-7.11-18.64-13.07-18.64-8.59,0-21.37,9.03-39.07,27.62l-.21,.25c-37.77,49.44-56.91,89.46-56.91,118.93,0,26.09,14.43,39.88,41.74,39.88,19.04,0,44.54-6.6,75.88-19.66,20.69-9.51,34.98-16.28,44.86-21.15,.38,8,6.05,12.59,17.12,13.69,15.84-2.08,33.45-9.53,52.83-22.35-3.23,7.81-4.85,15.42-4.85,22.82,1.88,16.25,10.11,24.9,24.7,25.94h6.56c10.52-1.77,20.63-3.96,30.32-6.56,19.47-6.86,31.2-11.41,38.11-14.53,5.14,14.49,17.06,21.83,35.68,21.83h4.79c23.64,0,57.75-9.11,101.37-27.09l.24-.11c57.63-24.99,64.29-31.62,64.29-34.41,.1-3.3-.85-5.21-2.74-5.65Zm-348.64,26.97c-5.31,.42-7.5-.47-6.57-2.66,2.32-3.36,4.77-6.34,7.34-8.99,.77-.54,1.25-.96,1.57-1.3,.23-.24,.47-.56,.71-.94,9.02-8.34,19.45-12.53,31.32-12.53h5.16l9.38,1.25c-15.74,14.17-32.04,22.56-48.92,25.16Z"/></g><path class="cls-1" d="M1023.24,2.74l-116.07,322.83-168.33-147.26L1023.24,2.74Zm7.59,11.75l-114.68,318.95,114.68,100.32V14.48Zm-312.82,161.57L432.58,1.66l117.15,322.32,168.27-147.93ZM426.67,432.17l114.1-100.3L426.67,17.93V432.17Zm474.05-98.28l-172.04-151.79-172.03,151.64,172.1,210.79,171.97-210.64Zm8.34,7.36l-180.31,220.85-180.44-221.01-118.11,104.11c100.32,100.84,200.54,201.58,299.67,301.21,99.14-99.58,199.13-200.03,298.53-299.87l-119.34-105.29Z"/><g><path class="cls-1" d="M1060.57,21.98h-3.28l-3-4.27c-.39,.05-.83,.08-1.27,.08h-1.73v4.19h-2.77V4.41h4.5c4.83,0,7.5,2.66,7.5,6.72,0,2.71-1.21,4.81-3.52,5.87l3.57,4.99Zm-7.65-6.57c3.39,0,4.76-1.6,4.76-4.29s-1.4-4.27-4.76-4.27h-1.63V15.42h1.63Z"/><path class="cls-1" d="M1053.61,27.08c-7.47,0-13.54-6.07-13.54-13.54s6.08-13.54,13.54-13.54,13.54,6.08,13.54,13.54-6.08,13.54-13.54,13.54Zm0-24.73c-6.17,0-11.19,5.02-11.19,11.19s5.02,11.19,11.19,11.19,11.19-5.02,11.19-11.19-5.02-11.19-11.19-11.19Z"/></g></svg>