<svg width="180" height="183" viewBox="0 0 180 183" fill="none" xmlns="http://www.w3.org/2000/svg">
<g clip-path="url(#clip0_876_3)">
<path d="M14.2711 123.352C15.2745 123.352 15.7762 124.136 15.7762 125.704C15.2745 129.457 14.717 131.585 13.9924 132.145C13.7694 132.257 13.5464 132.257 13.3792 132.145C13.1562 132.033 13.1004 131.809 13.1562 131.585C13.8809 129.457 14.3826 127.385 14.6613 125.424C14.5498 124.864 14.3826 124.584 14.2711 124.584C12.1528 124.584 8.6966 128.729 4.01404 136.962C2.45318 140.378 1.67276 143.067 1.67276 144.915C1.67276 147.659 3.17787 149.059 6.18809 149.059H6.46681C10.4804 149.059 17.1698 146.595 26.5907 141.667C26.8694 141.667 27.0924 141.779 27.1481 141.891C27.2596 142.171 27.2039 142.395 27.0366 142.507C26.6464 142.955 23.3575 144.579 17.2256 147.379C12.5987 149.284 8.91958 150.292 6.13234 150.292C2.28595 150.292 0.390625 148.443 0.390625 144.803C0.390625 140.49 3.17787 134.666 8.75235 127.329C11.3166 124.696 13.1562 123.352 14.2711 123.352Z" fill="black"/>
<path d="M6.18767 150.74C2.1183 150.74 0 148.667 0 144.803C0 140.434 2.84299 134.442 8.41747 127.105C11.0932 124.304 12.9885 122.96 14.2149 122.96C15.1068 122.96 16.166 123.464 16.166 125.76V125.816C15.4971 130.969 14.7724 132.145 14.2149 132.537L14.1592 132.593C13.8247 132.761 13.4345 132.761 13.1 132.593C12.7098 132.369 12.5426 131.977 12.7098 131.529C13.4345 129.457 13.8805 127.441 14.1592 125.536C14.1034 125.312 14.0477 125.2 14.0477 125.144C12.6541 125.312 9.81109 127.665 4.3481 137.298C2.84299 140.658 2.06256 143.235 2.06256 145.027C2.06256 147.547 3.34469 148.723 6.13193 148.723H6.41065C10.3128 148.723 17.0022 146.259 26.3116 141.33L26.423 141.274H26.5345C26.9805 141.33 27.315 141.442 27.4264 141.722L27.4822 141.778C27.6494 142.339 27.4264 142.675 27.315 142.843C26.9805 143.179 25.5869 144.075 17.3924 147.827C12.8213 149.732 9.03066 150.74 6.18767 150.74ZM14.2707 123.8C13.6017 123.8 12.0966 124.472 9.14215 127.665C3.67916 134.834 0.891917 140.602 0.891917 144.803C0.891917 148.219 2.62001 149.844 6.18767 149.844C8.91917 149.844 12.5426 148.891 17.1137 146.987C25.0294 143.347 26.5345 142.395 26.7575 142.171C26.7575 142.171 26.7575 142.115 26.7575 142.059C26.7575 142.059 26.7018 142.059 26.646 142.059C17.1694 147.043 10.5358 149.452 6.4664 149.452H6.18767C2.95448 149.452 1.22639 147.883 1.22639 144.915C1.22639 142.955 2.00681 140.322 3.56767 136.738C8.47321 128.113 11.8736 124.136 14.2149 124.136C14.7166 124.136 14.8839 124.752 15.0511 125.312V125.368V125.424C14.7724 127.385 14.2707 129.513 13.546 131.697C13.6017 131.753 13.6575 131.753 13.7132 131.753C14.0477 131.417 14.7166 130.185 15.2741 125.648C15.3298 123.8 14.5494 123.8 14.2707 123.8Z" fill="black"/>
<path d="M38.9654 141.722C41.1952 142.002 41.3624 141.946 43.4807 141.834C46.1565 141.666 47.7731 140.714 47.7731 140.714C48.0518 140.602 49.1667 141.89 48.1076 142.395C46.6582 143.179 44.6514 143.347 44.5956 143.347C42.979 143.683 40.2475 143.459 40.2475 143.459C38.5194 143.347 36.7914 143.067 34.896 142.731C33.9484 142.563 33.0007 142.395 32.053 142.282C31.9973 142.451 31.9416 143.011 31.7743 144.019C31.7186 144.131 31.7186 144.243 31.7186 144.355C31.4956 145.531 30.9939 146.819 30.1577 148.219C29.3216 149.619 28.1509 150.292 26.5343 150.348H26.1998C24.5832 150.124 23.7471 149.059 23.7471 147.099C23.8586 144.579 25.4752 141.946 28.7084 139.258C29.4888 139.034 29.879 139.426 29.879 140.378C26.3113 143.571 24.8062 146.091 25.4752 147.995C25.6981 148.443 26.0884 148.723 26.7573 148.723C28.8198 147.995 30.0462 145.475 30.4922 141.05C30.6037 140.77 30.7152 140.546 30.9939 140.49C31.2169 140.434 31.4956 140.434 31.7743 140.546C32.722 140.714 33.6139 140.882 34.5058 140.994C36.5684 141.33 37.0701 141.442 38.9654 141.722Z" fill="black"/>
<path d="M75.1989 128.561H75.3661C75.9235 128.673 76.2023 129.009 76.2023 129.681V130.073C76.2023 131.585 75.1989 133.937 73.1921 137.13C72.4674 138.362 71.0738 140.098 68.9554 142.283C68.7325 142.283 68.398 143.067 67.952 144.579C67.4503 146.035 67.2274 147.211 67.2274 148.107C67.2274 148.723 67.3946 149.003 67.7291 149.003C72.4674 149.003 79.6585 147.323 94.5423 142.17H94.5981C94.9325 142.17 95.1555 142.395 95.267 142.843C95.267 143.235 94.821 143.515 93.8734 143.739C79.6027 148.667 72.6346 150.292 67.7848 150.292C67.0044 150.292 66.4469 149.844 66.1125 148.947C66.0567 148.667 66.001 148.443 66.001 148.275V147.771C66.001 145.251 67.7848 140.602 71.2967 133.713C72.1329 132.145 73.1363 130.633 74.307 129.065C74.5857 128.729 74.9201 128.561 75.1989 128.561ZM74.4742 130.409C74.1397 130.745 71.1852 135.786 69.7916 139.09C75.2546 134.441 75.2546 129.849 75.2546 129.849L74.4742 130.409Z" fill="black"/>
<path d="M67.6738 150.572C66.7819 150.572 66.1129 150.068 65.7785 149.059C65.7227 148.723 65.667 148.499 65.667 148.275V147.771C65.667 145.195 67.3951 140.546 71.0185 133.601C71.8547 132.033 72.8581 130.465 74.0287 128.897C74.5304 128.505 74.8649 128.337 75.1994 128.337H75.3666C75.8683 128.393 76.4257 128.729 76.4257 129.681V130.073C76.4257 131.641 75.4223 133.993 73.3598 137.242C72.6351 138.474 71.1857 140.21 69.0674 142.451L69.0117 142.507H68.9002C68.9002 142.507 68.6772 142.787 68.1198 144.579C67.6181 145.979 67.3951 147.155 67.3951 148.051C67.3951 148.499 67.5066 148.723 67.6738 148.723C72.6351 148.723 80.3836 146.763 94.4313 141.946H94.4871C94.8215 141.946 95.2675 142.115 95.379 142.843C95.379 143.683 94.1526 143.963 93.7624 144.019C80.2164 148.723 72.9138 150.572 67.6738 150.572ZM75.3108 128.785H75.1994C75.0321 128.785 74.8091 128.841 74.3632 129.233C73.2483 130.745 72.2449 132.257 71.4087 133.825C67.8968 140.658 66.1129 145.307 66.1129 147.771V148.275C66.1129 148.443 66.1687 148.611 66.2244 148.891C66.5032 149.676 66.9491 150.068 67.6738 150.068C72.8581 150.068 80.1049 148.219 93.7066 143.515C94.4871 143.347 94.933 143.067 94.933 142.843C94.8215 142.395 94.5986 142.395 94.5428 142.395C80.4951 147.211 72.7466 149.227 67.6738 149.227C67.3393 149.227 66.9491 149.003 66.9491 148.051C66.9491 147.099 67.2278 145.867 67.6738 144.411C68.2313 142.451 68.51 142.059 68.7887 142.002C70.8513 139.818 72.2449 138.138 72.9696 136.962C74.9206 133.825 75.924 131.529 75.924 130.017V129.625C75.924 129.009 75.5896 128.841 75.3108 128.785ZM69.1232 139.93L69.5691 138.978C70.9627 135.842 73.9172 130.633 74.3074 130.241L75.4781 129.401V129.905C75.4781 130.073 75.3666 134.666 69.9036 139.314L69.1232 139.93ZM74.6419 130.577C74.3074 130.913 72.0219 134.946 70.461 138.138C73.973 134.778 74.7534 131.585 74.9206 130.353L74.6419 130.577Z" fill="black"/>
<path d="M115.114 123.352C116.117 123.352 116.619 124.136 116.619 125.704C116.117 129.457 115.56 131.585 114.835 132.145C114.612 132.257 114.389 132.257 114.222 132.145C113.999 132.033 113.943 131.809 113.999 131.585C114.724 129.457 115.225 127.385 115.504 125.424C115.393 124.864 115.225 124.584 115.114 124.584C112.996 124.584 109.539 128.729 104.857 136.962C103.296 140.434 102.516 143.067 102.516 144.915C102.516 147.659 104.021 149.059 107.031 149.059H107.31C111.323 149.059 118.013 146.595 127.433 141.667C127.712 141.667 127.935 141.779 127.991 141.891C128.102 142.171 128.047 142.395 127.879 142.507C127.489 142.955 124.2 144.579 118.068 147.379C113.442 149.284 109.762 150.292 106.975 150.292C103.129 150.292 101.233 148.443 101.233 144.803C101.233 140.49 104.021 134.666 109.595 127.329C112.159 124.696 113.999 123.352 115.114 123.352Z" fill="black"/>
<path d="M107.03 150.74C102.961 150.74 100.843 148.667 100.843 144.803C100.843 140.434 103.686 134.442 109.26 127.105C111.936 124.304 113.831 122.96 115.058 122.96C115.95 122.96 117.009 123.464 117.009 125.76V125.816C116.34 130.969 115.615 132.145 115.058 132.537L115.002 132.593C114.667 132.761 114.277 132.761 113.943 132.593C113.553 132.369 113.385 131.977 113.553 131.529C114.277 129.457 114.723 127.441 115.002 125.536C114.946 125.312 114.89 125.2 114.89 125.144C113.497 125.312 110.654 127.665 105.191 137.298C103.686 140.658 102.905 143.235 102.905 145.027C102.905 147.547 104.187 148.723 106.975 148.723H107.253C111.156 148.723 117.845 146.259 127.154 141.33L127.266 141.274H127.377C127.823 141.33 128.158 141.442 128.269 141.722L128.325 141.778C128.492 142.339 128.269 142.675 128.158 142.843C127.823 143.179 126.43 144.075 118.235 147.827C113.664 149.732 109.873 150.74 107.03 150.74ZM115.113 123.8C114.445 123.8 112.939 124.472 109.985 127.665C104.522 134.834 101.735 140.602 101.735 144.803C101.735 148.219 103.463 149.844 107.03 149.844C109.762 149.844 113.385 148.891 117.956 146.987C125.872 143.347 127.377 142.395 127.6 142.171C127.6 142.171 127.6 142.115 127.6 142.059C127.6 142.059 127.545 142.059 127.489 142.059C118.124 146.987 111.323 149.452 107.309 149.452H107.03C103.797 149.452 102.069 147.883 102.069 144.915C102.069 142.955 102.85 140.322 104.41 136.738C109.316 128.113 112.716 124.136 115.058 124.136C115.559 124.136 115.727 124.752 115.894 125.312V125.368V125.424C115.615 127.385 115.113 129.513 114.389 131.697C114.445 131.753 114.5 131.753 114.556 131.753C114.89 131.417 115.559 130.185 116.117 125.648C116.173 123.8 115.392 123.8 115.113 123.8Z" fill="black"/>
<path d="M133.174 138.81C134.791 138.866 135.627 139.146 135.738 139.762C135.794 140.266 135.738 140.658 135.627 140.938L135.738 140.77C136.352 139.874 136.965 139.37 137.689 139.37C138.135 139.482 138.303 139.762 138.303 140.322C137.411 142.395 136.463 144.467 136.519 146.595C136.63 149.507 140.365 148.499 140.365 148.499C143.877 147.827 146.943 146.539 149.675 145.027C150.232 144.859 150.121 145.755 150.344 146.091C150.567 146.483 152.741 146.315 143.71 149.507C142.261 149.9 140.755 150.236 139.195 150.46H138.247C136.073 150.292 134.846 149.003 134.568 146.595C134.568 145.475 134.791 144.355 135.292 143.179C132.394 145.083 129.829 146.203 127.432 146.483C125.76 146.315 124.868 145.587 124.868 144.299C124.868 142.787 126.485 141.162 129.774 139.37C130.833 139.202 131.892 138.922 133.174 138.81ZM126.931 144.355C126.819 144.691 127.098 144.803 127.878 144.747C130.387 144.355 132.784 143.123 135.125 140.994L133.732 140.826H132.951C130.554 140.77 128.547 141.946 126.931 144.355Z" fill="black"/>
<path d="M170.356 146.595C163.89 149.283 158.873 150.628 155.361 150.628H154.636C150.901 150.628 149.062 148.667 149.006 144.691C149.006 144.187 149.229 143.347 149.563 142.226C150.344 139.874 152.072 135.282 152.518 134.553C152.797 134.217 153.187 134.161 153.688 134.385C154.023 134.609 154.134 134.945 153.967 135.394C153.856 135.562 152.295 139.706 151.626 141.498L162.663 139.762C162.886 139.762 163.054 139.818 163.165 139.93C163.277 140.042 163.388 140.266 163.388 140.602C163.388 140.938 163.221 141.162 162.942 141.218L151.18 143.067C151.013 143.795 150.901 144.355 150.845 144.859C150.845 147.547 152.239 148.891 155.026 148.891H156.253C159.151 148.891 163.667 147.659 169.799 145.139C172.53 143.907 175.54 142.506 178.829 140.882C179.108 140.77 179.331 140.77 179.554 140.882C179.777 140.938 179.889 141.162 179.889 141.61C179.889 142.17 176.711 143.851 170.356 146.595Z" fill="black"/>
<path d="M155.417 150.74H154.692C150.901 150.74 149.006 148.723 148.95 144.691C149.006 144.187 149.173 143.347 149.508 142.17C150.232 139.874 152.016 135.17 152.462 134.497C152.797 134.105 153.243 134.049 153.744 134.329C154.023 134.497 154.302 134.834 154.079 135.45V135.506C153.967 135.674 152.518 139.426 151.793 141.442L162.663 139.762C162.886 139.762 163.109 139.818 163.277 139.93C163.444 140.042 163.5 140.266 163.5 140.658C163.5 141.05 163.332 141.274 162.998 141.386L151.291 143.179C151.124 143.851 151.013 144.411 150.957 144.915C150.957 147.547 152.295 148.835 155.026 148.835H156.253C159.096 148.835 163.667 147.547 169.743 145.083C172.475 143.851 175.54 142.451 178.774 140.826C179.052 140.714 179.331 140.714 179.61 140.826C179.889 140.882 180.056 141.162 180 141.666C180 142.058 178.997 143.067 170.468 146.819H170.412C163.946 149.395 158.873 150.74 155.417 150.74ZM153.187 134.329C152.964 134.329 152.797 134.441 152.685 134.609C152.295 135.282 150.511 139.93 149.786 142.227C149.452 143.347 149.229 144.187 149.229 144.691C149.229 148.611 151.068 150.516 154.748 150.516H155.472C158.929 150.516 164.001 149.171 170.412 146.483H170.468C178.662 142.899 179.889 141.89 179.889 141.554C179.889 141.162 179.833 140.994 179.666 140.938C179.443 140.882 179.22 140.882 178.997 140.938C175.763 142.563 172.697 144.019 169.966 145.195C163.834 147.715 159.263 148.947 156.364 148.947H155.138C152.295 148.947 150.846 147.547 150.846 144.803C150.901 144.299 151.013 143.683 151.18 142.955V142.899H151.236L162.998 141.05C163.221 140.994 163.332 140.826 163.332 140.546C163.332 140.266 163.277 140.042 163.165 139.986C163.054 139.874 162.886 139.818 162.719 139.874L151.514 141.61L151.57 141.442C152.183 139.762 153.689 135.674 153.911 135.338C154.023 134.946 153.967 134.665 153.689 134.497C153.466 134.385 153.298 134.329 153.187 134.329Z" fill="black"/>
<path d="M59.4801 141.722C61.7098 142.002 61.8771 141.946 63.9954 141.834C66.6711 141.666 68.2877 140.714 68.2877 140.714C68.5665 140.602 69.6814 141.89 68.6222 142.395C67.1728 143.179 65.166 143.347 65.1103 143.347C63.4937 143.683 60.7622 143.459 60.7622 143.459C59.0341 143.347 57.306 143.067 55.4107 142.731C54.463 142.563 53.5154 142.395 52.5677 142.282C52.512 142.451 52.4562 143.011 52.289 144.019C52.2332 144.131 52.2332 144.243 52.2332 144.355C52.0102 145.531 51.5085 146.819 50.6724 148.219C49.8362 149.619 48.6656 150.292 47.049 150.348H46.7145C45.0979 150.124 44.2617 149.059 44.2617 147.099C44.3732 144.579 45.9898 141.946 49.223 139.258C50.0034 139.034 50.3936 139.426 50.3936 140.378C46.826 143.571 45.3209 146.091 45.9898 147.995C46.2128 148.443 46.603 148.723 47.2719 148.723C49.3345 147.995 50.5609 145.475 51.0068 141.05C51.1183 140.77 51.2298 140.546 51.5085 140.49C51.7315 140.434 52.0102 140.434 52.289 140.546C53.2366 140.714 54.1285 140.882 55.0205 140.994C57.083 141.33 57.6405 141.442 59.4801 141.722Z" fill="black"/>
<path d="M133.676 4.16802L116.451 52.2785L91.4772 30.3235L133.676 4.16802ZM134.791 5.90426L117.789 53.4546L134.791 68.4086C134.791 40.2369 134.791 33.2919 134.791 5.90426ZM88.4112 29.9875L46.1009 4L63.4933 52.0544L88.4112 29.9875ZM45.209 68.1286L62.1554 53.1746L45.209 6.40832C45.209 32.8999 45.209 39.9568 45.209 68.1286ZM115.503 53.5106L89.9721 30.8836L64.4409 53.4546L89.9721 84.8748L115.503 53.5106ZM116.73 54.5748L89.9721 87.5072L63.2146 54.5748L45.7107 70.0889C60.5946 85.0989 75.4784 100.109 90.1393 114.951C104.856 100.109 119.684 85.1549 134.401 70.2569L116.73 54.5748Z" fill="black"/>
<path d="M15.6641 167.486H17.1692L20.8483 179.36L25.4194 167.15H25.5309L30.102 179.36L33.7811 167.486H35.2305L30.2135 183H30.102L25.4752 170.622L20.7368 183H20.6254L15.6641 167.486Z" fill="black"/>
<path d="M37.9619 167.486H39.4113V182.664H37.9619V167.486Z" fill="black"/>
<path d="M44.7627 170.734V182.664H43.4248V167.094H43.5363L53.7376 179.416V167.43H55.0755V183H54.964L44.7627 170.734Z" fill="black"/>
<path d="M58.9775 167.486H68.1197V168.774H60.4269V176.391H67.2835V177.679H60.4269V181.432H68.4542V182.72H58.9775V167.486Z" fill="black"/>
<path d="M76.3701 179.135C77.1505 180.648 78.5441 181.544 80.328 181.544C82.3905 181.544 83.6169 180.536 83.6169 178.911C83.6169 177.231 82.6135 176.447 80.7739 175.607L79.5476 175.047C77.3735 174.039 76.0356 173.031 76.0356 170.902C76.0356 168.718 77.708 167.262 79.9378 167.262C81.8331 167.262 83.171 167.99 84.0629 169.502L82.948 170.23C82.2791 169.11 81.3314 168.55 79.9378 168.55C78.4327 168.55 77.4292 169.502 77.4292 170.846C77.4292 172.303 78.2654 172.863 80.105 173.703L81.3314 174.263C83.7842 175.439 85.0105 176.559 85.0105 178.855C85.0105 181.376 83.1152 182.832 80.2722 182.832C77.8195 182.832 76.0356 181.6 75.0322 179.752L76.3701 179.135Z" fill="black"/>
<path d="M89.6378 182.664H88.1885V167.43H91.4217C95.5468 167.43 97.6651 169.894 97.6651 173.143C97.6651 176.391 95.5468 178.855 91.4217 178.855H89.6378V182.664V182.664ZM91.3102 177.567C94.7664 177.567 96.16 175.719 96.16 173.199C96.16 170.622 94.7664 168.774 91.3102 168.774H89.5821V177.623H91.3102V177.567Z" fill="black"/>
<path d="M109.984 182.664H108.2L105.19 178.743C104.8 178.799 104.41 178.855 103.964 178.855H102.124V182.664H100.675V167.43H103.964C108.089 167.43 110.207 169.894 110.207 173.143C110.207 175.607 108.981 177.567 106.639 178.407L109.984 182.664ZM103.852 177.623C107.308 177.623 108.702 175.775 108.702 173.199C108.702 170.622 107.308 168.774 103.852 168.774H102.068V177.623H103.852Z" fill="black"/>
<path d="M113.44 167.486H114.89V182.664H113.44V167.486Z" fill="black"/>
<path d="M122.192 168.774H117.51V167.486H128.324V168.774H123.642V182.664H122.192V168.774Z" fill="black"/>
<path d="M129.272 182.608L138.08 168.774H130.332V167.486H140.477V167.598L131.669 181.432H140.533V182.72H129.272V182.608Z" fill="black"/>
<path d="M143.319 167.486H152.462V168.774H144.769V176.391H151.625V177.679H144.769V181.432H152.74V182.72H143.264V167.486H143.319Z" fill="black"/>
<path d="M165.172 182.664H163.388L160.378 178.743C159.987 178.799 159.597 178.855 159.151 178.855H157.312V182.664H155.862V167.43H159.151C163.276 167.43 165.395 169.894 165.395 173.143C165.395 175.607 164.168 177.567 161.827 178.407L165.172 182.664ZM159.04 177.623C162.496 177.623 163.89 175.775 163.89 173.199C163.89 170.622 162.496 168.774 159.04 168.774H157.256V177.623H159.04Z" fill="black"/>
</g>
<path d="M137.358 6.74716V4.12642H138.686C138.793 4.12642 138.909 4.1572 139.034 4.21875C139.16 4.27794 139.266 4.37027 139.354 4.49574C139.444 4.61884 139.489 4.77509 139.489 4.96449C139.489 5.15625 139.442 5.3196 139.35 5.45455C139.258 5.58712 139.145 5.68774 139.013 5.75639C138.883 5.82505 138.759 5.85938 138.643 5.85938H137.685V5.43324H138.466C138.544 5.43324 138.628 5.39418 138.718 5.31605C138.81 5.23793 138.857 5.12074 138.857 4.96449C138.857 4.8035 138.81 4.6946 138.718 4.63778C138.628 4.58097 138.549 4.55256 138.48 4.55256H137.933V6.74716H137.358ZM138.942 5.51136L139.595 6.74716H138.963L138.324 5.51136H138.942ZM138.352 8.30966C137.959 8.30966 137.591 8.23627 137.248 8.08949C136.905 7.94271 136.603 7.73911 136.342 7.47869C136.082 7.21828 135.878 6.91643 135.732 6.57315C135.585 6.22988 135.511 5.86174 135.511 5.46875C135.511 5.07576 135.585 4.70762 135.732 4.36435C135.878 4.02107 136.082 3.71922 136.342 3.45881C136.603 3.19839 136.905 2.99479 137.248 2.84801C137.591 2.70123 137.959 2.62784 138.352 2.62784C138.745 2.62784 139.113 2.70123 139.457 2.84801C139.8 2.99479 140.102 3.19839 140.362 3.45881C140.623 3.71922 140.826 4.02107 140.973 4.36435C141.12 4.70762 141.193 5.07576 141.193 5.46875C141.193 5.86174 141.12 6.22988 140.973 6.57315C140.826 6.91643 140.623 7.21828 140.362 7.47869C140.102 7.73911 139.8 7.94271 139.457 8.08949C139.113 8.23627 138.745 8.30966 138.352 8.30966ZM138.352 7.62784C138.75 7.62784 139.112 7.53078 139.439 7.33665C139.766 7.14252 140.026 6.8821 140.22 6.5554C140.414 6.22869 140.511 5.86648 140.511 5.46875C140.511 5.07102 140.414 4.70881 140.22 4.3821C140.026 4.0554 139.766 3.79498 139.439 3.60085C139.112 3.40672 138.75 3.30966 138.352 3.30966C137.955 3.30966 137.592 3.40672 137.266 3.60085C136.939 3.79498 136.679 4.0554 136.484 4.3821C136.29 4.70881 136.193 5.07102 136.193 5.46875C136.193 5.86648 136.29 6.22869 136.484 6.5554C136.679 6.8821 136.939 7.14252 137.266 7.33665C137.592 7.53078 137.955 7.62784 138.352 7.62784Z" fill="black"/>
<defs>
<clipPath id="clip0_876_3">
<rect width="180" height="179" fill="white" transform="translate(0 4)"/>
</clipPath>
</defs>
</svg>
